PathFileType	4	(X/Y/Z)	D:\TRACE\spotREDO_2-26-24\spot_Both_Motion_1_6-v60.trc
DataRate	CameraRate	NumFrames	NumMarkers	Units	OrigDataRate	OrigDataStartFrame	OrigNumFrames
100.00	100.00	      21	9	mm	100.00	1	      7000
Frame#	Time	front left toe			Front right toe			aft left toe			aft right toe			Arm			FL body			FR body			AL Body			AR Body			
		X1	Y1	Z1	X2	Y2	Z2	X3	Y3	Z3	X4	Y4	Z4	X5	Y5	Z5	X6	Y6	Z6	X7	Y7	Z7	X8	Y8	Z8	X9	Y9	Z9	

1	0.000	-247.29999	22.04169	-191.67567	269.33267	21.45452	-205.98100	-225.66202	22.91141	407.56949	283.83554	27.98110	395.48105	13.41175	953.10419	-446.04288	-66.24004	641.72797	-297.79395	89.90359	646.81702	-303.71964	-38.73458	603.40717	584.78815	102.38547	608.83423	581.80469	
2	0.010	-247.31541	22.02262	-191.65662	269.60913	21.41562	-205.76369	-225.58060	22.80408	407.62259	283.84912	27.97606	395.51620	13.61408	953.70917	-446.62885	-66.21217	641.70337	-297.79617	89.93001	646.82379	-303.66562	-38.79329	603.38409	584.76166	102.35709	608.83453	581.80511	
3	0.020	-247.30556	22.01444	-191.66737	269.54654	21.41861	-205.79968	-225.68445	22.84833	407.59595	283.80038	27.95606	395.49161	13.65930	954.27435	-447.07956	-66.21549	641.68909	-297.80026	89.94666	646.79547	-303.65884	-38.80690	603.37659	584.79681	102.34647	608.79041	581.83624	
4	0.030	-247.32442	22.04310	-191.66469	269.34698	21.41007	-205.98294	-225.67154	22.89106	407.57578	283.79688	27.96372	395.49265	13.58618	955.11835	-447.39813	-66.24845	641.68988	-297.80014	89.92921	646.79022	-303.63748	-38.85004	603.40216	584.78149	102.30772	608.83240	581.86078	
5	0.040	-247.27441	22.01598	-191.68288	269.34137	21.43167	-205.97159	-225.63528	22.92702	407.55319	283.84857	28.00623	395.50616	13.42522	955.79889	-447.90103	-66.23639	641.68243	-297.79733	89.96294	646.76324	-303.62570	-38.81355	603.38470	584.79797	102.29767	608.80701	581.87134	
6	0.050	-247.27293	22.02559	-191.63300	269.29553	21.43747	-205.96582	-225.74202	22.97839	407.49997	283.80176	27.96642	395.49786	13.37322	956.45605	-448.32544	-66.23472	641.67291	-297.77206	89.93549	646.76184	-303.63843	-38.89215	603.41333	584.81549	102.14742	608.83850	581.86346	
7	0.060	-247.32376	22.01919	-191.65054	269.26749	21.38859	-205.99217	-225.64830	22.81246	407.63278	283.81232	27.94058	395.51761	13.58771	957.21857	-449.01636	-66.27077	641.62799	-297.75989	89.92651	646.74890	-303.60544	-38.84204	603.34790	584.82092	102.06252	608.83118	581.89990	
8	0.070	-247.28410	21.96294	-191.64690	269.32050	21.41272	-205.97150	-225.59248	22.79400	407.56070	283.81223	27.94493	395.52631	13.47855	957.99719	-449.50281	-66.31559	641.63690	-297.72766	89.94122	646.74976	-303.48416	-38.87890	603.32654	584.82782	101.97588	608.83539	581.89807	
9	0.080	-247.28246	22.01756	-191.64529	269.31741	21.43077	-206.01816	-225.66313	22.88186	407.60168	283.83096	27.96120	395.51291	13.56877	958.48846	-449.83859	-66.32140	641.62085	-297.72583	89.97311	646.73981	-303.46045	-38.91788	603.34473	584.83612	101.97042	608.81641	581.90637	
10	0.090	-247.27301	22.04044	-191.65823	269.33646	21.47307	-205.95239	-225.65555	22.87892	407.55304	283.84213	27.97172	395.49762	13.53017	959.26904	-450.35767	-66.25923	641.58014	-297.72281	89.98703	646.75183	-303.47464	-38.94064	603.38495	584.86652	101.93832	608.84235	581.93304	
11	0.100	-247.29033	22.05233	-191.66527	269.27762	21.42175	-205.95721	-225.75276	22.96624	407.54111	283.83344	27.99420	395.49689	13.56054	959.86310	-450.76569	-66.27842	641.61700	-297.65808	89.97372	646.72003	-303.41724	-38.99483	603.38660	584.87878	101.60770	608.85913	581.94287	
12	0.110	-247.36345	22.06839	-191.64287	269.25745	21.41509	-205.95995	-225.79794	22.92449	407.53690	283.79587	27.95945	395.53372	13.46647	960.67432	-451.41064	-66.24446	641.59546	-297.59805	89.91113	646.68689	-303.50259	-39.06738	603.36694	584.89569	101.32177	608.90778	581.98639	
13	0.120	-247.38431	22.07946	-191.69325	269.31943	21.45241	-205.90645	-225.82944	22.94563	407.51913	283.76425	27.93782	395.47278	13.81958	961.07928	-451.60641	-66.26984	641.62683	-297.67975	89.97382	646.70270	-303.37894	-39.06105	603.37476	584.91193	101.31137	608.87311	581.96942	
14	0.130	-247.34889	22.06865	-191.68306	269.33905	21.48124	-205.95842	-225.74562	22.97120	407.50089	283.85226	28.00263	395.51898	13.71605	961.85815	-452.15179	-66.26009	641.55353	-297.65189	89.93683	646.69196	-303.49475	-39.06167	603.36572	584.92926	100.95828	609.00598	581.95355	
15	0.140	-247.35942	22.05374	-191.67026	269.33362	21.46045	-205.95595	-225.76419	22.98947	407.50906	283.81305	27.98322	395.48911	13.39056	962.53662	-452.69147	-66.22793	641.54962	-297.58536	89.99500	646.69104	-303.33923	-39.09706	603.38843	584.93549	101.22582	608.92120	582.02905	
16	0.150	-247.31134	22.04312	-191.69240	269.60892	21.46229	-205.73824	-225.65738	22.89778	407.54425	283.83261	27.96677	395.50366	13.39040	963.11029	-453.14709	-66.22417	641.53815	-297.55682	90.01266	646.65259	-303.43457	-39.05296	603.38135	584.96527	100.47944	609.08081	581.92657	
17	0.160	-247.33723	22.03035	-191.65298	269.31790	21.48072	-205.91965	-225.68758	22.91099	407.57352	283.80234	27.94504	395.53250	13.67945	963.70868	-453.45163	-66.26132	641.52740	-297.58389	89.98495	646.63898	-303.42621	-39.12902	603.36932	584.99414	100.21702	609.02533	581.92865	
18	0.170	-247.32823	22.00617	-191.66460	269.26773	21.41835	-205.91515	-225.72064	22.83300	407.62231	283.76154	27.93150	395.48755	13.81754	964.22601	-453.89789	-66.19132	641.45813	-297.57141	89.95885	646.60620	-303.45401	-39.13471	603.32233	584.99634	101.13634	608.89880	582.02496	
19	0.180	-247.30789	22.02837	-191.67929	269.28659	21.44055	-205.89897	-225.71176	22.86151	407.55627	283.75238	27.92039	395.49677	13.74415	964.79010	-454.41782	-66.12405	641.44568	-297.57623	90.01673	646.57416	-303.41718	-39.13833	603.32318	584.99915	101.16136	608.86853	582.04510	
20	0.190	-247.33694	22.03165	-191.65663	269.29898	21.39704	-205.91800	-225.73247	22.91946	407.54813	283.80417	27.95791	395.53995	13.50444	965.53442	-454.92136	-66.12225	641.45270	-297.58029	90.02662	646.59137	-303.39822	-39.13771	603.34277	585.02026	101.11755	608.86377	582.02966	
21	0.200	-247.28128	22.03528	-191.65222	269.34793	21.42851	-205.90691	-225.73625	22.88505	407.58420	283.83688	27.97602	395.54990	13.70697	966.36908	-455.16754	-66.07236	641.43091	-297.54257	90.06161	646.56122	-303.41284	-39.12009	603.34436	585.01556	101.21559	608.87341	582.04083	
